<svg width="400" height="240" viewBox="0 0 400 240" xmlns="http://www.w3.org/2000/svg">
  <defs>
    <linearGradient id="bgGradient" x1="0%" y1="0%" x2="100%" y2="100%">
      <stop offset="0%" style="stop-color:#3B82F6;stop-opacity:1" />
      <stop offset="100%" style="stop-color:#8B5CF6;stop-opacity:1" />
    </linearGradient>
    <linearGradient id="cardGradient" x1="0%" y1="0%" x2="100%" y2="100%">
      <stop offset="0%" style="stop-color:#FFFFFF;stop-opacity:0.95" />
      <stop offset="100%" style="stop-color:#F8FAFC;stop-opacity:0.9" />
    </linearGradient>
    <filter id="shadow" x="-20%" y="-20%" width="140%" height="140%">
      <feDropShadow dx="0" dy="4" stdDeviation="8" flood-color="#000000" flood-opacity="0.15"/>
    </filter>
  </defs>
  
  <!-- Background -->
  <rect width="400" height="240" rx="24" fill="url(#bgGradient)"/>
  
  <!-- Browser Window -->
  <rect x="50" y="40" width="300" height="160" rx="12" fill="url(#cardGradient)" filter="url(#shadow)"/>
  
  <!-- Browser Header -->
  <rect x="50" y="40" width="300" height="30" rx="12" fill="#F1F5F9"/>
  <rect x="50" y="55" width="300" height="145" rx="0" fill="url(#cardGradient)"/>
  
  <!-- Traffic Lights -->
  <circle cx="70" cy="55" r="4" fill="#EF4444"/>
  <circle cx="85" cy="55" r="4" fill="#F59E0B"/>
  <circle cx="100" cy="55" r="4" fill="#10B981"/>
  
  <!-- URL Bar -->
  <rect x="120" y="47" width="180" height="16" rx="8" fill="#E2E8F0"/>
  <rect x="128" y="50" width="164" height="10" rx="5" fill="#CBD5E1"/>
  
  <!-- Modern UI Cards -->
  <rect x="70" y="80" width="60" height="35" rx="8" fill="#3B82F6" opacity="0.1"/>
  <rect x="70" y="85" width="35" height="4" rx="2" fill="#3B82F6"/>
  <rect x="70" y="92" width="50" height="3" rx="1.5" fill="#94A3B8"/>
  <rect x="70" y="98" width="40" height="3" rx="1.5" fill="#94A3B8"/>
  <rect x="70" y="104" width="45" height="3" rx="1.5" fill="#94A3B8"/>
  
  <rect x="140" y="80" width="60" height="35" rx="8" fill="#10B981" opacity="0.1"/>
  <rect x="140" y="85" width="38" height="4" rx="2" fill="#10B981"/>
  <rect x="140" y="92" width="50" height="3" rx="1.5" fill="#94A3B8"/>
  <rect x="140" y="98" width="35" height="3" rx="1.5" fill="#94A3B8"/>
  <rect x="140" y="104" width="52" height="3" rx="1.5" fill="#94A3B8"/>
  
  <rect x="210" y="80" width="60" height="35" rx="8" fill="#8B5CF6" opacity="0.1"/>
  <rect x="210" y="85" width="32" height="4" rx="2" fill="#8B5CF6"/>
  <rect x="210" y="92" width="42" height="3" rx="1.5" fill="#94A3B8"/>
  <rect x="210" y="98" width="50" height="3" rx="1.5" fill="#94A3B8"/>
  <rect x="210" y="104" width="38" height="3" rx="1.5" fill="#94A3B8"/>
  
  <rect x="280" y="80" width="60" height="35" rx="8" fill="#F59E0B" opacity="0.1"/>
  <rect x="280" y="85" width="28" height="4" rx="2" fill="#F59E0B"/>
  <rect x="280" y="92" width="45" height="3" rx="1.5" fill="#94A3B8"/>
  <rect x="280" y="98" width="40" height="3" rx="1.5" fill="#94A3B8"/>
  <rect x="280" y="104" width="48" height="3" rx="1.5" fill="#94A3B8"/>
  
  <!-- Navigation Dots -->
  <rect x="70" y="125" width="200" height="22" rx="11" fill="#F8FAFC" opacity="0.7"/>
  <rect x="85" y="131" width="30" height="10" rx="5" fill="#3B82F6"/>
  <rect x="125" y="133" width="25" height="6" rx="3" fill="#CBD5E1"/>
  <rect x="155" y="133" width="25" height="6" rx="3" fill="#CBD5E1"/>
  <rect x="185" y="133" width="30" height="6" rx="3" fill="#CBD5E1"/>
  <rect x="220" y="133" width="25" height="6" rx="3" fill="#CBD5E1"/>
  
  <!-- Feature Icons -->
  <rect x="70" y="155" width="80" height="30" rx="15" fill="rgba(59, 130, 246, 0.1)"/>
  <circle cx="90" cy="170" r="8" fill="#3B82F6" opacity="0.3"/>
  <rect x="105" y="165" width="40" height="3" rx="1.5" fill="#3B82F6"/>
  <rect x="105" y="171" width="32" height="3" rx="1.5" fill="#94A3B8"/>
  
  <rect x="160" y="155" width="80" height="30" rx="15" fill="rgba(139, 92, 246, 0.1)"/>
  <circle cx="180" cy="170" r="8" fill="#8B5CF6" opacity="0.3"/>
  <rect x="195" y="165" width="40" height="3" rx="1.5" fill="#8B5CF6"/>
  <rect x="195" y="171" width="32" height="3" rx="1.5" fill="#94A3B8"/>
  
  <rect x="250" y="155" width="80" height="30" rx="15" fill="rgba(16, 185, 129, 0.1)"/>
  <circle cx="270" cy="170" r="8" fill="#10B981" opacity="0.3"/>
  <rect x="285" y="165" width="40" height="3" rx="1.5" fill="#10B981"/>
  <rect x="285" y="171" width="32" height="3" rx="1.5" fill="#94A3B8"/>
  
  <!-- Mobile Responsive Indicator -->
  <g transform="translate(365, 50)">
    <rect x="0" y="0" width="18" height="32" rx="3" fill="rgba(255,255,255,0.8)"/>
    <rect x="2" y="3" width="14" height="24" rx="1" fill="#E2E8F0"/>
    <rect x="3" y="6" width="12" height="3" rx="1.5" fill="#3B82F6"/>
    <rect x="3" y="11" width="10" height="2" rx="1" fill="#CBD5E1"/>
    <rect x="3" y="14" width="12" height="2" rx="1" fill="#CBD5E1"/>
    <rect x="3" y="17" width="8" height="2" rx="1" fill="#CBD5E1"/>
    <circle cx="9" cy="25" r="2" fill="#94A3B8"/>
  </g>
  
  <!-- React Symbol (small) -->
  <g transform="translate(365, 190)">
    <circle cx="0" cy="0" r="3" fill="#61DAFB"/>
    <ellipse cx="0" cy="0" rx="18" ry="7" fill="none" stroke="#61DAFB" stroke-width="1.5" opacity="0.6"/>
    <ellipse cx="0" cy="0" rx="18" ry="7" fill="none" stroke="#61DAFB" stroke-width="1.5" opacity="0.6" transform="rotate(60)"/>
    <ellipse cx="0" cy="0" rx="18" ry="7" fill="none" stroke="#61DAFB" stroke-width="1.5" opacity="0.6" transform="rotate(-60)"/>
  </g>
  
</svg>