<svg width="240" height="240" viewBox="0 0 240 240" xmlns="http://www.w3.org/2000/svg">
  <defs>
    <linearGradient id="bgGradient" x1="0%" y1="0%" x2="100%" y2="100%">
      <stop offset="0%" style="stop-color:#3B82F6;stop-opacity:1" />
      <stop offset="100%" style="stop-color:#8B5CF6;stop-opacity:1" />
    </linearGradient>
    <linearGradient id="cardGradient" x1="0%" y1="0%" x2="100%" y2="100%">
      <stop offset="0%" style="stop-color:#FFFFFF;stop-opacity:0.95" />
      <stop offset="100%" style="stop-color:#F8FAFC;stop-opacity:0.9" />
    </linearGradient>
    <filter id="shadow" x="-20%" y="-20%" width="140%" height="140%">
      <feDropShadow dx="0" dy="4" stdDeviation="8" flood-color="#000000" flood-opacity="0.15"/>
    </filter>
  </defs>
  
  <!-- Background -->
  <rect width="240" height="240" rx="24" fill="url(#bgGradient)"/>
  
  <!-- Browser Window -->
  <rect x="30" y="50" width="180" height="140" rx="12" fill="url(#cardGradient)" filter="url(#shadow)"/>
  
  <!-- Browser Header -->
  <rect x="30" y="50" width="180" height="30" rx="12" fill="#F1F5F9"/>
  <rect x="30" y="65" width="180" height="125" rx="0" fill="url(#cardGradient)"/>
  
  <!-- Traffic Lights -->
  <circle cx="45" cy="65" r="4" fill="#EF4444"/>
  <circle cx="60" cy="65" r="4" fill="#F59E0B"/>
  <circle cx="75" cy="65" r="4" fill="#10B981"/>
  
  <!-- URL Bar -->
  <rect x="95" y="57" width="100" height="16" rx="8" fill="#E2E8F0"/>
  <rect x="100" y="60" width="90" height="10" rx="5" fill="#CBD5E1"/>
  
  <!-- Modern UI Cards -->
  <rect x="45" y="95" width="35" height="25" rx="6" fill="#3B82F6" opacity="0.1"/>
  <rect x="45" y="98" width="20" height="3" rx="1.5" fill="#3B82F6"/>
  <rect x="45" y="103" width="30" height="2" rx="1" fill="#94A3B8"/>
  <rect x="45" y="107" width="25" height="2" rx="1" fill="#94A3B8"/>
  <rect x="45" y="111" width="28" height="2" rx="1" fill="#94A3B8"/>
  
  <rect x="90" y="95" width="35" height="25" rx="6" fill="#10B981" opacity="0.1"/>
  <rect x="90" y="98" width="22" height="3" rx="1.5" fill="#10B981"/>
  <rect x="90" y="103" width="30" height="2" rx="1" fill="#94A3B8"/>
  <rect x="90" y="107" width="20" height="2" rx="1" fill="#94A3B8"/>
  <rect x="90" y="111" width="32" height="2" rx="1" fill="#94A3B8"/>
  
  <rect x="135" y="95" width="35" height="25" rx="6" fill="#8B5CF6" opacity="0.1"/>
  <rect x="135" y="98" width="18" height="3" rx="1.5" fill="#8B5CF6"/>
  <rect x="135" y="103" width="25" height="2" rx="1" fill="#94A3B8"/>
  <rect x="135" y="107" width="30" height="2" rx="1" fill="#94A3B8"/>
  <rect x="135" y="111" width="22" height="2" rx="1" fill="#94A3B8"/>
  
  <!-- Navigation Dots -->
  <rect x="45" y="130" width="125" height="18" rx="9" fill="#F8FAFC" opacity="0.7"/>
  <rect x="55" y="135" width="20" height="8" rx="4" fill="#3B82F6"/>
  <rect x="80" y="137" width="15" height="4" rx="2" fill="#CBD5E1"/>
  <rect x="100" y="137" width="15" height="4" rx="2" fill="#CBD5E1"/>
  <rect x="120" y="137" width="20" height="4" rx="2" fill="#CBD5E1"/>
  <rect x="145" y="137" width="15" height="4" rx="2" fill="#CBD5E1"/>
  
  <!-- Feature Icons -->
  <rect x="45" y="155" width="50" height="20" rx="10" fill="rgba(59, 130, 246, 0.1)"/>
  <circle cx="58" cy="165" r="5" fill="#3B82F6" opacity="0.3"/>
  <rect x="66" y="162" width="25" height="2" rx="1" fill="#3B82F6"/>
  <rect x="66" y="166" width="20" height="2" rx="1" fill="#94A3B8"/>
  
  <rect x="105" y="155" width="50" height="20" rx="10" fill="rgba(139, 92, 246, 0.1)"/>
  <circle cx="118" cy="165" r="5" fill="#8B5CF6" opacity="0.3"/>
  <rect x="126" y="162" width="25" height="2" rx="1" fill="#8B5CF6"/>
  <rect x="126" y="166" width="20" height="2" rx="1" fill="#94A3B8"/>
  
  <!-- Mobile Responsive Indicator -->
  <g transform="translate(180, 60)">
    <rect x="0" y="0" width="14" height="24" rx="2" fill="rgba(255,255,255,0.8)"/>
    <rect x="1" y="2" width="12" height="18" rx="1" fill="#E2E8F0"/>
    <rect x="2" y="4" width="10" height="2" rx="1" fill="#3B82F6"/>
    <rect x="2" y="7" width="8" height="1" rx="0.5" fill="#CBD5E1"/>
    <rect x="2" y="9" width="10" height="1" rx="0.5" fill="#CBD5E1"/>
    <rect x="2" y="11" width="6" height="1" rx="0.5" fill="#CBD5E1"/>
    <circle cx="7" cy="21" r="1.5" fill="#94A3B8"/>
  </g>
  
  <!-- React Symbol (small) -->
  <g transform="translate(200, 160)">
    <circle cx="0" cy="0" r="2" fill="#61DAFB"/>
    <ellipse cx="0" cy="0" rx="12" ry="5" fill="none" stroke="#61DAFB" stroke-width="1" opacity="0.6"/>
    <ellipse cx="0" cy="0" rx="12" ry="5" fill="none" stroke="#61DAFB" stroke-width="1" opacity="0.6" transform="rotate(60)"/>
    <ellipse cx="0" cy="0" rx="12" ry="5" fill="none" stroke="#61DAFB" stroke-width="1" opacity="0.6" transform="rotate(-60)"/>
  </g>
  
</svg>