<svg width="400" height="240" viewBox="0 0 400 240" xmlns="http://www.w3.org/2000/svg">
  <defs>
    <linearGradient id="bgGradient" x1="0%" y1="0%" x2="100%" y2="100%">
      <stop offset="0%" style="stop-color:#10B981;stop-opacity:1" />
      <stop offset="100%" style="stop-color:#3B82F6;stop-opacity:1" />
    </linearGradient>
    <linearGradient id="cardGradient" x1="0%" y1="0%" x2="100%" y2="100%">
      <stop offset="0%" style="stop-color:#FFFFFF;stop-opacity:0.95" />
      <stop offset="100%" style="stop-color:#F8FAFC;stop-opacity:0.9" />
    </linearGradient>
    <linearGradient id="headerGradient" x1="0%" y1="0%" x2="100%" y2="100%">
      <stop offset="0%" style="stop-color:#10B981;stop-opacity:0.8" />
      <stop offset="100%" style="stop-color:#3B82F6;stop-opacity:0.8" />
    </linearGradient>
    <filter id="shadow" x="-20%" y="-20%" width="140%" height="140%">
      <feDropShadow dx="0" dy="4" stdDeviation="8" flood-color="#000000" flood-opacity="0.15"/>
    </filter>
    <filter id="glow">
      <feGaussianBlur stdDeviation="2" result="coloredBlur"/>
      <feMerge> 
        <feMergeNode in="coloredBlur"/>
        <feMergeNode in="SourceGraphic"/>
      </feMerge>
    </filter>
  </defs>
  
  <!-- Background -->
  <rect width="400" height="240" rx="24" fill="url(#bgGradient)"/>
  
  <!-- Floating particles -->
  <g opacity="0.3">
    <circle cx="80" cy="50" r="3" fill="#FFFFFF">
      <animate attributeName="cy" values="50;40;50" dur="4s" repeatCount="indefinite"/>
    </circle>
    <circle cx="320" cy="70" r="2" fill="#FFFFFF">
      <animate attributeName="cy" values="70;60;70" dur="3s" repeatCount="indefinite"/>
    </circle>
    <circle cx="60" cy="180" r="2.5" fill="#FFFFFF">
      <animate attributeName="cy" values="180;170;180" dur="3.5s" repeatCount="indefinite"/>
    </circle>
  </g>
  
  <!-- Main Dashboard Container -->
  <rect x="50" y="40" width="300" height="160" rx="12" fill="url(#cardGradient)" filter="url(#shadow)"/>
  
  <!-- Header Bar -->
  <rect x="50" y="40" width="300" height="35" rx="12" fill="url(#headerGradient)"/>
  <rect x="50" y="60" width="300" height="140" rx="0" fill="url(#cardGradient)"/>
  
  <!-- Header Icon -->
  <rect x="65" y="52" width="18" height="18" rx="4" fill="#FFFFFF" opacity="0.9" filter="url(#glow)"/>
  <rect x="68" y="55" width="12" height="8" rx="1" fill="#10B981"/>
  <rect x="70" y="57" width="8" height="2" rx="1" fill="#FFFFFF"/>
  <rect x="70" y="60" width="6" height="1.5" rx="0.5" fill="#FFFFFF"/>
  
  <!-- Header Title -->
  <rect x="95" y="54" width="80" height="6" rx="3" fill="#FFFFFF" opacity="0.9"/>
  <rect x="95" y="63" width="60" height="4" rx="2" fill="#FFFFFF" opacity="0.7"/>
  
  <!-- Navigation Tabs -->
  <rect x="250" y="52" width="35" height="5" rx="2.5" fill="#FFFFFF" opacity="0.8"/>
  <rect x="290" y="52" width="30" height="5" rx="2.5" fill="#FFFFFF" opacity="0.6"/>
  <rect x="250" y="60" width="40" height="5" rx="2.5" fill="#FFFFFF" opacity="0.4"/>
  
  <!-- Main Content Area -->
  <g transform="translate(65, 85)">
    <!-- Course Cards -->
    <rect x="0" y="0" width="80" height="50" rx="8" fill="#10B981" opacity="0.1" stroke="#10B981" stroke-width="1" stroke-opacity="0.3"/>
    <rect x="8" y="8" width="20" height="4" rx="2" fill="#10B981"/>
    <rect x="8" y="16" width="60" height="3" rx="1.5" fill="#64748B"/>
    <rect x="8" y="22" width="45" height="3" rx="1.5" fill="#64748B"/>
    <rect x="8" y="28" width="35" height="3" rx="1.5" fill="#64748B"/>
    <rect x="55" y="35" width="18" height="8" rx="4" fill="#10B981" opacity="0.8"/>
    
    <rect x="90" y="0" width="80" height="50" rx="8" fill="#3B82F6" opacity="0.1" stroke="#3B82F6" stroke-width="1" stroke-opacity="0.3"/>
    <rect x="98" y="8" width="25" height="4" rx="2" fill="#3B82F6"/>
    <rect x="98" y="16" width="55" height="3" rx="1.5" fill="#64748B"/>
    <rect x="98" y="22" width="40" height="3" rx="1.5" fill="#64748B"/>
    <rect x="98" y="28" width="50" height="3" rx="1.5" fill="#64748B"/>
    <rect x="145" y="35" width="18" height="8" rx="4" fill="#3B82F6" opacity="0.8"/>
    
    <rect x="180" y="0" width="80" height="50" rx="8" fill="#8B5CF6" opacity="0.1" stroke="#8B5CF6" stroke-width="1" stroke-opacity="0.3"/>
    <rect x="188" y="8" width="22" height="4" rx="2" fill="#8B5CF6"/>
    <rect x="188" y="16" width="50" height="3" rx="1.5" fill="#64748B"/>
    <rect x="188" y="22" width="38" height="3" rx="1.5" fill="#64748B"/>
    <rect x="188" y="28" width="45" height="3" rx="1.5" fill="#64748B"/>
    <rect x="235" y="35" width="18" height="8" rx="4" fill="#8B5CF6" opacity="0.8"/>
  </g>
  
  <!-- Stats/Analytics Section -->
  <g transform="translate(65, 145)">
    <!-- Progress Bars -->
    <rect x="0" y="0" width="70" height="8" rx="4" fill="#E2E8F0"/>
    <rect x="0" y="0" width="45" height="8" rx="4" fill="#10B981"/>
    
    <rect x="80" y="0" width="70" height="8" rx="4" fill="#E2E8F0"/>
    <rect x="80" y="0" width="35" height="8" rx="4" fill="#3B82F6"/>
    
    <rect x="160" y="0" width="70" height="8" rx="4" fill="#E2E8F0"/>
    <rect x="160" y="0" width="55" height="8" rx="4" fill="#8B5CF6"/>
    
    <!-- Labels -->
    <rect x="0" y="12" width="25" height="3" rx="1.5" fill="#64748B"/>
    <rect x="80" y="12" width="30" height="3" rx="1.5" fill="#64748B"/>
    <rect x="160" y="12" width="28" height="3" rx="1.5" fill="#64748B"/>
  </g>
  
  <!-- User/Management Icons -->
  <g transform="translate(280, 145)">
    <circle cx="10" cy="8" r="6" fill="#F1F5F9" stroke="#10B981" stroke-width="2"/>
    <circle cx="5" cy="5" r="2" fill="#10B981"/>
    <circle cx="15" cy="5" r="2" fill="#10B981"/>
    <path d="M2,12 Q8,8 14,12" stroke="#10B981" stroke-width="1.5" fill="none"/>
  </g>
</svg>
