<svg viewBox="0 0 400 240" xmlns="http://www.w3.org/2000/svg">
  <defs>
    <linearGradient id="bgGradient4" x1="0%" y1="0%" x2="100%" y2="100%">
      <stop offset="0%" style="stop-color:#667eea;stop-opacity:1" />
      <stop offset="100%" style="stop-color:#764ba2;stop-opacity:1" />
    </linearGradient>
    <linearGradient id="cardGradient4" x1="0%" y1="0%" x2="100%" y2="100%">
      <stop offset="0%" style="stop-color:#ffffff;stop-opacity:0.95" />
      <stop offset="100%" style="stop-color:#f8fafc;stop-opacity:0.9" />
    </linearGradient>
    <linearGradient id="accentGradient4" x1="0%" y1="0%" x2="100%" y2="100%">
      <stop offset="0%" style="stop-color:#2563eb;stop-opacity:1" />
      <stop offset="100%" style="stop-color:#3b82f6;stop-opacity:1" />
    </linearGradient>
    <filter id="shadow4" x="-20%" y="-20%" width="140%" height="140%">
      <feDropShadow dx="2" dy="4" stdDeviation="4" flood-color="rgba(0,0,0,0.1)"/>
    </filter>
  </defs>
  
  <!-- Background -->
  <rect width="400" height="240" fill="url(#bgGradient4)" rx="8"/>
  
  <!-- Main Dashboard Container -->
  <rect x="20" y="30" width="360" height="180" fill="url(#cardGradient4)" rx="12" filter="url(#shadow4)"/>
  
  <!-- Top Navigation Bar -->
  <rect x="30" y="40" width="340" height="40" fill="url(#accentGradient4)" rx="6"/>
  <circle cx="50" cy="60" r="12" fill="rgba(255,255,255,0.9)"/>
  <rect x="70" y="54" width="80" height="4" fill="rgba(255,255,255,0.8)" rx="2"/>
  <rect x="70" y="62" width="60" height="4" fill="rgba(255,255,255,0.6)" rx="2"/>
  
  <!-- User Avatar -->
  <circle cx="350" cy="60" r="12" fill="rgba(255,255,255,0.9)"/>
  
  <!-- Dashboard Stats Cards Row -->
  <rect x="40" y="95" width="75" height="50" fill="#e3f2fd" rx="6" filter="url(#shadow4)"/>
  <rect x="125" y="95" width="75" height="50" fill="#f3e5f5" rx="6" filter="url(#shadow4)"/>
  <rect x="210" y="95" width="75" height="50" fill="#e8f5e8" rx="6" filter="url(#shadow4)"/>
  <rect x="295" y="95" width="75" height="50" fill="#fff3e0" rx="6" filter="url(#shadow4)"/>
  
  <!-- Stats Icons -->
  <circle cx="65" cy="110" r="8" fill="#1976d2"/>
  <circle cx="150" cy="110" r="8" fill="#7b1fa2"/>
  <circle cx="235" cy="110" r="8" fill="#388e3c"/>
  <circle cx="320" cy="110" r="8" fill="#f57c00"/>
  
  <!-- Stats Values -->
  <rect x="50" y="125" width="30" height="6" fill="#1976d2" rx="1"/>
  <rect x="135" y="125" width="30" height="6" fill="#7b1fa2" rx="1"/>
  <rect x="220" y="125" width="30" height="6" fill="#388e3c" rx="1"/>
  <rect x="305" y="125" width="30" height="6" fill="#f57c00" rx="1"/>
  
  <!-- Course Management Section -->
  <rect x="40" y="160" width="160" height="40" fill="rgba(255,255,255,0.95)" rx="6" filter="url(#shadow4)"/>
  <rect x="48" y="168" width="20" height="4" fill="#2563eb" rx="2"/>
  <rect x="48" y="176" width="30" height="3" fill="#64748b" rx="1"/>
  <rect x="48" y="182" width="25" height="3" fill="#64748b" rx="1"/>
  <rect x="48" y="188" width="35" height="3" fill="#64748b" rx="1"/>
  
  <!-- Material-UI Components Preview -->
  <rect x="210" y="160" width="160" height="40" fill="rgba(255,255,255,0.95)" rx="6" filter="url(#shadow4)"/>
  <circle cx="225" cy="172" r="4" fill="#2563eb"/>
  <rect x="235" y="170" width="40" height="2" fill="#64748b" rx="1"/>
  <circle cx="225" cy="182" r="4" fill="#10b981"/>
  <rect x="235" y="180" width="35" height="2" fill="#64748b" rx="1"/>
  <circle cx="225" cy="192" r="4" fill="#f59e0b"/>
  <rect x="235" y="190" width="30" height="2" fill="#64748b" rx="1"/>
  
  <!-- React Component Indicators -->
  <rect x="285" y="168" width="25" height="8" fill="#61dafb" rx="2" opacity="0.8"/>
  <rect x="315" y="168" width="25" height="8" fill="#61dafb" rx="2" opacity="0.6"/>
  <rect x="285" y="180" width="25" height="8" fill="#61dafb" rx="2" opacity="0.7"/>
  <rect x="315" y="180" width="25" height="8" fill="#61dafb" rx="2" opacity="0.5"/>
  
  <!-- File Management Icons -->
  <g transform="translate(350, 175)">
    <rect x="0" y="0" width="8" height="10" fill="#64748b" rx="1"/>
    <rect x="2" y="2" width="4" height="1" fill="white"/>
    <rect x="2" y="4" width="4" height="1" fill="white"/>
    <rect x="2" y="6" width="4" height="1" fill="white"/>
  </g>
  
  <!-- Role-based UI Indicator -->
  <rect x="320" y="195" width="45" height="8" fill="url(#accentGradient4)" rx="4" opacity="0.8"/>
</svg>
